<?xml version="1.0" ?><svg id="Layer_1" style="enable-background:new 0 0 66 66;" version="1.1" viewBox="0 0 66 66" xml:space="preserve" xmlns="http://www.w3.org/2000/svg" xmlns:xlink="http://www.w3.org/1999/xlink"><g><path d="M64.5,43.7l-10.3-6.2c-0.1,0-0.1-0.1-0.2-0.1c-4.7-1.5-5.4-4.1-6.5-8c-0.8-2.7-1.6-5.7-4-9.1c-0.4-0.5-0.4-1.3,0-1.8   c0.3-0.4,0.8-0.7,1.3-0.7c0,0,0,0,0,0c0.5,0,1,0.3,1.4,0.8l5.5,6.7c0.3,0.4,0.9,0.5,1.3,0.2c0.4-0.2,0.6-0.8,0.4-1.2   c-3-7.6-5.5-12.5-9.3-14.5c-1.1-0.6-2.3-1-3.5-1.4c-1.5-0.5-2.9-1-4.1-1.9C35.8,6,35.6,5,36,4.3c0.4-0.6,1.2-0.8,2-0.6l0.2,0.1   c5,1.7,7.7,2.6,13.5,7.4c5.3,4.3,7.5,11,7.8,15.8c0,0.3,0.2,0.6,0.4,0.8l3.5,2.4c0.5,0.3,1.1,0.2,1.4-0.3c0.3-0.5,0.2-1.1-0.3-1.4   l-3.1-2.1C61,21.2,58.5,14.2,53,9.6c-6.1-4.9-9.1-6-14.1-7.7l-0.2-0.1c-1.7-0.6-3.4,0-4.3,1.3c-1,1.6-0.7,3.7,0.9,4.9   c1.5,1.2,3.1,1.7,4.7,2.2c1.1,0.4,2.2,0.7,3.1,1.2c2.1,1.1,3.8,3.4,5.5,6.9l-0.9-1.1c-0.7-1-1.8-1.6-3-1.6c0,0,0,0,0,0   c-1.2,0-2.3,0.6-3,1.6c-0.8,1.2-0.8,2.8,0,4c2.1,3.1,3,6,3.7,8.5c1.2,4,2.1,7.5,7.7,9.3l10.2,6.2c0.2,0.1,0.3,0.1,0.5,0.1   c0.3,0,0.7-0.2,0.9-0.5C65.1,44.6,65,44,64.5,43.7z"/><path d="M20.9,30c0.7-2.5,1.6-5.4,3.7-8.5c0.8-1.2,0.8-2.8,0-4c-0.7-1-1.8-1.6-3-1.6c0,0,0,0,0,0c-1.2,0-2.3,0.6-2.9,1.5l-0.9,1.1   c1.7-3.5,3.4-5.7,5.5-6.8c1-0.5,2-0.9,3.1-1.2c1.6-0.5,3.3-1.1,4.7-2.2c1.5-1.2,1.9-3.3,0.9-4.9c-0.9-1.4-2.6-1.9-4.3-1.3l-0.2,0.1   c-5,1.7-8,2.8-14.1,7.7c-5.6,4.6-8,11.5-8.5,16.7l-2.9,2c-0.5,0.3-0.6,0.9-0.3,1.4c0.3,0.5,0.9,0.6,1.4,0.3l3.3-2.2   c0.3-0.2,0.4-0.5,0.4-0.8c0.3-4.8,2.5-11.5,7.8-15.8c5.8-4.7,8.5-5.7,13.5-7.4l0.2-0.1c0.8-0.3,1.6,0,2,0.6   c0.5,0.8,0.2,1.7-0.5,2.2c-1.2,0.9-2.6,1.4-4.1,1.9c-1.1,0.4-2.3,0.8-3.5,1.4c-3.8,2-6.2,6.8-9.3,14.5c-0.2,0.5,0,1,0.4,1.2   c0.4,0.2,1,0.2,1.3-0.2l5.5-6.8c0.3-0.4,0.8-0.7,1.3-0.7c0,0,0,0,0,0c0.5,0,1,0.3,1.3,0.7c0.4,0.5,0.4,1.2,0,1.8   c-2.3,3.4-3.2,6.4-4,9.1c-1.1,3.9-1.9,6.5-6.5,8c-0.1,0-0.2,0.1-0.3,0.1L1.4,45c-0.5,0.3-0.6,0.9-0.3,1.4c0.2,0.3,0.5,0.4,0.8,0.4   c0.2,0,0.4-0.1,0.6-0.2l10.6-7.3C18.8,37.4,19.8,34,20.9,30z"/><path d="M45.3,61.1c0,0.9-0.1,2.2-1.1,2.9c-1.2,0.8-2.7,0.1-4.7-0.7c-1.8-0.8-4-1.7-6.3-1.7c-2.3,0-4.5,0.9-6.3,1.7   c-1.3,0.6-2.5,1-3.4,1c-0.4,0-0.8-0.1-1.2-0.3c-1-0.7-1.1-2-1.1-2.9c0-5.5,5.2-14,12-14C40.1,47.1,45.3,55.6,45.3,61.1z"/><path d="M23.7,45.8c0,2.7-1.4,4.9-3.3,4.9c-1.8,0-3.3-2.1-3.3-4.9s1.4-4.9,3.3-4.9C22.3,40.9,23.7,43,23.7,45.8z"/><path d="M32.1,40.7c0,2.7-1.4,4.9-3.3,4.9c-1.8,0-3.3-2.1-3.3-4.9c0-2.7,1.4-4.9,3.3-4.9C30.7,35.8,32.1,38,32.1,40.7z"/><path d="M41,40.7c0,2.7-1.4,4.9-3.3,4.9c-1.8,0-3.3-2.1-3.3-4.9c0-2.7,1.4-4.9,3.3-4.9C39.5,35.8,41,38,41,40.7z"/><ellipse cx="46.1" cy="45.8" rx="3.3" ry="4.9"/></g></svg>